<svg width="224" height="131" viewBox="0 0 224 131" fill="none" xmlns="http://www.w3.org/2000/svg">
<path d="M52.6059 130.8C43.9659 130.8 36.4659 129.6 30.1059 127.2C23.7459 124.68 18.4659 121.26 14.2659 116.94C10.1859 112.62 7.06594 107.58 4.90594 101.82C2.74594 96.06 1.48594 89.88 1.12594 83.28C1.00594 80.04 0.885938 76.38 0.765938 72.3C0.765938 68.1 0.765938 63.9 0.765938 59.7C0.885938 55.38 1.00594 51.54 1.12594 48.18C1.48594 41.58 2.74594 35.46 4.90594 29.82C7.18594 24.06 10.4259 19.08 14.6259 14.88C18.9459 10.56 24.2259 7.19999 30.4659 4.79999C36.8259 2.39999 44.2059 1.19999 52.6059 1.19999C61.1259 1.19999 68.5059 2.39999 74.7459 4.79999C80.9859 7.19999 86.2059 10.56 90.4059 14.88C94.7259 19.08 98.0259 24.06 100.306 29.82C102.586 35.46 103.846 41.58 104.086 48.18C104.326 51.54 104.446 55.38 104.446 59.7C104.566 63.9 104.566 68.1 104.446 72.3C104.446 76.38 104.326 80.04 104.086 83.28C103.846 89.88 102.586 96.06 100.306 101.82C98.1459 107.58 94.9659 112.62 90.7659 116.94C86.6859 121.26 81.4659 124.68 75.1059 127.2C68.8659 129.6 61.3659 130.8 52.6059 130.8ZM52.6059 104.7C58.8459 104.7 63.3459 102.72 66.1059 98.76C68.9859 94.68 70.4859 89.22 70.6059 82.38C70.8459 78.9 70.9659 75.24 70.9659 71.4C71.0859 67.56 71.0859 63.72 70.9659 59.88C70.9659 56.04 70.8459 52.5 70.6059 49.26C70.4859 42.66 68.9859 37.32 66.1059 33.24C63.3459 29.16 58.8459 27.06 52.6059 26.94C46.3659 27.06 41.8659 29.16 39.1059 33.24C36.3459 37.32 34.8459 42.66 34.6059 49.26C34.4859 52.5 34.3659 56.04 34.2459 59.88C34.2459 63.72 34.2459 67.56 34.2459 71.4C34.3659 75.24 34.4859 78.9 34.6059 82.38C34.8459 89.22 36.4059 94.68 39.2859 98.76C42.1659 102.72 46.6059 104.7 52.6059 104.7ZM125.99 129C124.67 129 123.53 128.58 122.57 127.74C121.73 126.9 121.31 125.82 121.31 124.5V111.72C121.31 110.88 121.55 109.62 122.03 107.94C122.51 106.14 123.77 104.46 125.81 102.9L144.53 84.54C154.13 77.22 161.99 71.04 168.11 66C174.35 60.84 178.97 56.28 181.97 52.32C184.97 48.36 186.47 44.64 186.47 41.16C186.47 37.08 185.39 33.72 183.23 31.08C181.19 28.32 177.59 26.94 172.43 26.94C168.95 26.94 166.01 27.72 163.61 29.28C161.33 30.72 159.59 32.64 158.39 35.04C157.19 37.44 156.35 39.9 155.87 42.42C155.39 43.98 154.55 45.06 153.35 45.66C152.27 46.26 151.07 46.56 149.75 46.56H127.25C126.17 46.56 125.27 46.2 124.55 45.48C123.83 44.76 123.47 43.86 123.47 42.78C123.59 37.02 124.79 31.62 127.07 26.58C129.47 21.54 132.77 17.1 136.97 13.26C141.29 9.29999 146.39 6.23999 152.27 4.08C158.27 1.92 164.99 0.839998 172.43 0.839998C182.63 0.839998 191.27 2.45999 198.35 5.69999C205.55 8.93999 211.01 13.5 214.73 19.38C218.45 25.14 220.31 31.92 220.31 39.72C220.31 45.6 218.99 51.12 216.35 56.28C213.83 61.32 210.17 66.18 205.37 70.86C200.69 75.42 195.11 80.16 188.63 85.08L172.07 101.82H218.33C219.65 101.82 220.73 102.24 221.57 103.08C222.53 103.92 223.01 105 223.01 106.32V124.5C223.01 125.82 222.53 126.9 221.57 127.74C220.73 128.58 219.65 129 218.33 129H125.99Z" fill="white"/>
</svg>
